<svg version="1.1" xmlns="http://www.w3.org/2000/svg" xmlns:xlink="http://www.w3.org/1999/xlink" width="740.27001953125" height="386"><defs/><g><text fill="#eeeeee" stroke="none" font-family="Arial" font-size="24px" font-style="normal" font-weight="normal" text-decoration="none" x="0" y="0">UNREGISTERED</text><text fill="#eeeeee" stroke="none" font-family="Arial" font-size="24px" font-style="normal" font-weight="normal" text-decoration="none" x="0" y="30">UNREGISTERED</text><text fill="#eeeeee" stroke="none" font-family="Arial" font-size="24px" font-style="normal" font-weight="normal" text-decoration="none" x="0" y="60">UNREGISTERED</text><text fill="#eeeeee" stroke="none" font-family="Arial" font-size="24px" font-style="normal" font-weight="normal" text-decoration="none" x="0" y="90">UNREGISTERED</text><text fill="#eeeeee" stroke="none" font-family="Arial" font-size="24px" font-style="normal" font-weight="normal" text-decoration="none" x="0" y="120">UNREGISTERED</text><text fill="#eeeeee" stroke="none" font-family="Arial" font-size="24px" font-style="normal" font-weight="normal" text-decoration="none" x="0" y="150">UNREGISTERED</text><text fill="#eeeeee" stroke="none" font-family="Arial" font-size="24px" font-style="normal" font-weight="normal" text-decoration="none" x="0" y="180">UNREGISTERED</text><text fill="#eeeeee" stroke="none" font-family="Arial" font-size="24px" font-style="normal" font-weight="normal" text-decoration="none" x="0" y="210">UNREGISTERED</text><text fill="#eeeeee" stroke="none" font-family="Arial" font-size="24px" font-style="normal" font-weight="normal" text-decoration="none" x="0" y="240">UNREGISTERED</text><text fill="#eeeeee" stroke="none" font-family="Arial" font-size="24px" font-style="normal" font-weight="normal" text-decoration="none" x="0" y="270">UNREGISTERED</text><text fill="#eeeeee" stroke="none" font-family="Arial" font-size="24px" font-style="normal" font-weight="normal" text-decoration="none" x="0" y="300">UNREGISTERED</text><text fill="#eeeeee" stroke="none" font-family="Arial" font-size="24px" font-style="normal" font-weight="normal" text-decoration="none" x="0" y="330">UNREGISTERED</text><text fill="#eeeeee" stroke="none" font-family="Arial" font-size="24px" font-style="normal" font-weight="normal" text-decoration="none" x="0" y="360">UNREGISTERED</text><text fill="#eeeeee" stroke="none" font-family="Arial" font-size="24px" font-style="normal" font-weight="normal" text-decoration="none" x="200" y="0">UNREGISTERED</text><text fill="#eeeeee" stroke="none" font-family="Arial" font-size="24px" font-style="normal" font-weight="normal" text-decoration="none" x="200" y="30">UNREGISTERED</text><text fill="#eeeeee" stroke="none" font-family="Arial" font-size="24px" font-style="normal" font-weight="normal" text-decoration="none" x="200" y="60">UNREGISTERED</text><text fill="#eeeeee" stroke="none" font-family="Arial" font-size="24px" font-style="normal" font-weight="normal" text-decoration="none" x="200" y="90">UNREGISTERED</text><text fill="#eeeeee" stroke="none" font-family="Arial" font-size="24px" font-style="normal" font-weight="normal" text-decoration="none" x="200" y="120">UNREGISTERED</text><text fill="#eeeeee" stroke="none" font-family="Arial" font-size="24px" font-style="normal" font-weight="normal" text-decoration="none" x="200" y="150">UNREGISTERED</text><text fill="#eeeeee" stroke="none" font-family="Arial" font-size="24px" font-style="normal" font-weight="normal" text-decoration="none" x="200" y="180">UNREGISTERED</text><text fill="#eeeeee" stroke="none" font-family="Arial" font-size="24px" font-style="normal" font-weight="normal" text-decoration="none" x="200" y="210">UNREGISTERED</text><text fill="#eeeeee" stroke="none" font-family="Arial" font-size="24px" font-style="normal" font-weight="normal" text-decoration="none" x="200" y="240">UNREGISTERED</text><text fill="#eeeeee" stroke="none" font-family="Arial" font-size="24px" font-style="normal" font-weight="normal" text-decoration="none" x="200" y="270">UNREGISTERED</text><text fill="#eeeeee" stroke="none" font-family="Arial" font-size="24px" font-style="normal" font-weight="normal" text-decoration="none" x="200" y="300">UNREGISTERED</text><text fill="#eeeeee" stroke="none" font-family="Arial" font-size="24px" font-style="normal" font-weight="normal" text-decoration="none" x="200" y="330">UNREGISTERED</text><text fill="#eeeeee" stroke="none" font-family="Arial" font-size="24px" font-style="normal" font-weight="normal" text-decoration="none" x="200" y="360">UNREGISTERED</text><text fill="#eeeeee" stroke="none" font-family="Arial" font-size="24px" font-style="normal" font-weight="normal" text-decoration="none" x="400" y="0">UNREGISTERED</text><text fill="#eeeeee" stroke="none" font-family="Arial" font-size="24px" font-style="normal" font-weight="normal" text-decoration="none" x="400" y="30">UNREGISTERED</text><text fill="#eeeeee" stroke="none" font-family="Arial" font-size="24px" font-style="normal" font-weight="normal" text-decoration="none" x="400" y="60">UNREGISTERED</text><text fill="#eeeeee" stroke="none" font-family="Arial" font-size="24px" font-style="normal" font-weight="normal" text-decoration="none" x="400" y="90">UNREGISTERED</text><text fill="#eeeeee" stroke="none" font-family="Arial" font-size="24px" font-style="normal" font-weight="normal" text-decoration="none" x="400" y="120">UNREGISTERED</text><text fill="#eeeeee" stroke="none" font-family="Arial" font-size="24px" font-style="normal" font-weight="normal" text-decoration="none" x="400" y="150">UNREGISTERED</text><text fill="#eeeeee" stroke="none" font-family="Arial" font-size="24px" font-style="normal" font-weight="normal" text-decoration="none" x="400" y="180">UNREGISTERED</text><text fill="#eeeeee" stroke="none" font-family="Arial" font-size="24px" font-style="normal" font-weight="normal" text-decoration="none" x="400" y="210">UNREGISTERED</text><text fill="#eeeeee" stroke="none" font-family="Arial" font-size="24px" font-style="normal" font-weight="normal" text-decoration="none" x="400" y="240">UNREGISTERED</text><text fill="#eeeeee" stroke="none" font-family="Arial" font-size="24px" font-style="normal" font-weight="normal" text-decoration="none" x="400" y="270">UNREGISTERED</text><text fill="#eeeeee" stroke="none" font-family="Arial" font-size="24px" font-style="normal" font-weight="normal" text-decoration="none" x="400" y="300">UNREGISTERED</text><text fill="#eeeeee" stroke="none" font-family="Arial" font-size="24px" font-style="normal" font-weight="normal" text-decoration="none" x="400" y="330">UNREGISTERED</text><text fill="#eeeeee" stroke="none" font-family="Arial" font-size="24px" font-style="normal" font-weight="normal" text-decoration="none" x="400" y="360">UNREGISTERED</text><text fill="#eeeeee" stroke="none" font-family="Arial" font-size="24px" font-style="normal" font-weight="normal" text-decoration="none" x="600" y="0">UNREGISTERED</text><text fill="#eeeeee" stroke="none" font-family="Arial" font-size="24px" font-style="normal" font-weight="normal" text-decoration="none" x="600" y="30">UNREGISTERED</text><text fill="#eeeeee" stroke="none" font-family="Arial" font-size="24px" font-style="normal" font-weight="normal" text-decoration="none" x="600" y="60">UNREGISTERED</text><text fill="#eeeeee" stroke="none" font-family="Arial" font-size="24px" font-style="normal" font-weight="normal" text-decoration="none" x="600" y="90">UNREGISTERED</text><text fill="#eeeeee" stroke="none" font-family="Arial" font-size="24px" font-style="normal" font-weight="normal" text-decoration="none" x="600" y="120">UNREGISTERED</text><text fill="#eeeeee" stroke="none" font-family="Arial" font-size="24px" font-style="normal" font-weight="normal" text-decoration="none" x="600" y="150">UNREGISTERED</text><text fill="#eeeeee" stroke="none" font-family="Arial" font-size="24px" font-style="normal" font-weight="normal" text-decoration="none" x="600" y="180">UNREGISTERED</text><text fill="#eeeeee" stroke="none" font-family="Arial" font-size="24px" font-style="normal" font-weight="normal" text-decoration="none" x="600" y="210">UNREGISTERED</text><text fill="#eeeeee" stroke="none" font-family="Arial" font-size="24px" font-style="normal" font-weight="normal" text-decoration="none" x="600" y="240">UNREGISTERED</text><text fill="#eeeeee" stroke="none" font-family="Arial" font-size="24px" font-style="normal" font-weight="normal" text-decoration="none" x="600" y="270">UNREGISTERED</text><text fill="#eeeeee" stroke="none" font-family="Arial" font-size="24px" font-style="normal" font-weight="normal" text-decoration="none" x="600" y="300">UNREGISTERED</text><text fill="#eeeeee" stroke="none" font-family="Arial" font-size="24px" font-style="normal" font-weight="normal" text-decoration="none" x="600" y="330">UNREGISTERED</text><text fill="#eeeeee" stroke="none" font-family="Arial" font-size="24px" font-style="normal" font-weight="normal" text-decoration="none" x="600" y="360">UNREGISTERED</text><g transform="translate(-542,-294) scale(1,1)"><rect fill="#C0C0C0" stroke="none" x="559" y="447" width="150.62255859375" height="57" opacity="0.2"/></g><g transform="translate(-542,-294) scale(1,1)"><rect fill="#ffffff" stroke="none" x="552" y="440" width="150.62255859375" height="57"/></g><g transform="translate(-542,-294) scale(1,1)"><path fill="none" stroke="#000000" d="M 552 440 L 702.62255859375 440 L 702.62255859375 497 L 552 497 L 552 440 Z Z" stroke-miterlimit="10"/></g><g transform="translate(-542,-294) scale(1,1)"><path fill="none" stroke="#000000" d="M 552 465 L 702.62255859375 465" stroke-miterlimit="10"/></g><g transform="translate(-542,-294) scale(1,1)"><path fill="none" stroke="#000000" d="M 552 488 L 702.62255859375 488" stroke-miterlimit="10"/></g><g transform="translate(-542,-294) scale(1,1)"><g><path fill="none" stroke="none"/><text fill="#000000" stroke="none" font-family="Arial" font-size="13px" font-style="normal" font-weight="bold" text-decoration="none" x="592.50390625" y="459.5">PlanTrabajo</text></g></g><g transform="translate(-542,-294) scale(1,1)"><g><path fill="none" stroke="none"/><text fill="#000000" stroke="none" font-family="Arial" font-size="13px" font-style="normal" font-weight="normal" text-decoration="none" x="557" y="482.5">-actividades: Actividad[*]</text></g></g><g transform="translate(-542,-294) scale(1,1)"><rect fill="#C0C0C0" stroke="none" x="774" y="455" width="234.8115234375" height="222" opacity="0.2"/></g><g transform="translate(-542,-294) scale(1,1)"><rect fill="#ffffff" stroke="none" x="767" y="448" width="234.8115234375" height="222"/></g><g transform="translate(-542,-294) scale(1,1)"><path fill="none" stroke="#000000" d="M 767 448 L 1001.8115234375 448 L 1001.8115234375 670 L 767 670 L 767 448 Z Z" stroke-miterlimit="10"/></g><g transform="translate(-542,-294) scale(1,1)"><path fill="none" stroke="#000000" d="M 767 473 L 1001.8115234375 473" stroke-miterlimit="10"/></g><g transform="translate(-542,-294) scale(1,1)"><path fill="none" stroke="#000000" d="M 767 661 L 1001.8115234375 661" stroke-miterlimit="10"/></g><g transform="translate(-542,-294) scale(1,1)"><g><path fill="none" stroke="none"/><text fill="#000000" stroke="none" font-family="Arial" font-size="13px" font-style="normal" font-weight="bold" text-decoration="none" x="858.03125" y="467.5">Actividad</text></g></g><g transform="translate(-542,-294) scale(1,1)"><g><path fill="none" stroke="none"/><text fill="#000000" stroke="none" font-family="Arial" font-size="13px" font-style="normal" font-weight="normal" text-decoration="none" x="772" y="490.5">+id: Long</text></g></g><g transform="translate(-542,-294) scale(1,1)"><g><path fill="none" stroke="none"/><text fill="#000000" stroke="none" font-family="Arial" font-size="13px" font-style="normal" font-weight="normal" text-decoration="none" x="772" y="505.5">+tipo: String</text></g></g><g transform="translate(-542,-294) scale(1,1)"><g><path fill="none" stroke="none"/><text fill="#000000" stroke="none" font-family="Arial" font-size="13px" font-style="normal" font-weight="normal" text-decoration="none" x="772" y="520.5">+nombre: String</text></g></g><g transform="translate(-542,-294) scale(1,1)"><g><path fill="none" stroke="none"/><text fill="#000000" stroke="none" font-family="Arial" font-size="13px" font-style="normal" font-weight="normal" text-decoration="none" x="772" y="535.5">+fechaInicio: String</text></g></g><g transform="translate(-542,-294) scale(1,1)"><g><path fill="none" stroke="none"/><text fill="#000000" stroke="none" font-family="Arial" font-size="13px" font-style="normal" font-weight="normal" text-decoration="none" x="772" y="550.5">+fechaFin: String</text></g></g><g transform="translate(-542,-294) scale(1,1)"><g><path fill="none" stroke="none"/><text fill="#000000" stroke="none" font-family="Arial" font-size="13px" font-style="normal" font-weight="normal" text-decoration="none" x="772" y="565.5">+duracion: String</text></g></g><g transform="translate(-542,-294) scale(1,1)"><g><path fill="none" stroke="none"/><text fill="#000000" stroke="none" font-family="Arial" font-size="13px" font-style="normal" font-weight="normal" text-decoration="none" x="772" y="580.5">+objetivo: Objetivo</text></g></g><g transform="translate(-542,-294) scale(1,1)"><g><path fill="none" stroke="none"/><text fill="#000000" stroke="none" font-family="Arial" font-size="13px" font-style="normal" font-weight="normal" text-decoration="none" x="772" y="595.5">+etapa: Etapa</text></g></g><g transform="translate(-542,-294) scale(1,1)"><g><path fill="none" stroke="none"/><text fill="#000000" stroke="none" font-family="Arial" font-size="13px" font-style="normal" font-weight="normal" text-decoration="none" x="772" y="610.5">+objetivoEspecifico: ObjetivoEspecifico</text></g></g><g transform="translate(-542,-294) scale(1,1)"><g><path fill="none" stroke="none"/><text fill="#000000" stroke="none" font-family="Arial" font-size="13px" font-style="normal" font-weight="normal" text-decoration="none" x="772" y="625.5">+meta: Meta</text></g></g><g transform="translate(-542,-294) scale(1,1)"><g><path fill="none" stroke="none"/><text fill="#000000" stroke="none" font-family="Arial" font-size="13px" font-style="normal" font-weight="normal" text-decoration="none" x="772" y="640.5">+entregables: Entregable[*]</text></g></g><g transform="translate(-542,-294) scale(1,1)"><g><path fill="none" stroke="none"/><text fill="#000000" stroke="none" font-family="Arial" font-size="13px" font-style="normal" font-weight="normal" text-decoration="none" x="772" y="655.5">+responsables: PersonaFisica[*]</text></g></g><g transform="translate(-542,-294) scale(1,1)"><rect fill="#C0C0C0" stroke="none" x="1069" y="473" width="123.53076171875" height="72" opacity="0.2"/></g><g transform="translate(-542,-294) scale(1,1)"><rect fill="#ffffff" stroke="none" x="1062" y="466" width="123.53076171875" height="72"/></g><g transform="translate(-542,-294) scale(1,1)"><path fill="none" stroke="#000000" d="M 1062 466 L 1185.53076171875 466 L 1185.53076171875 538 L 1062 538 L 1062 466 Z Z" stroke-miterlimit="10"/></g><g transform="translate(-542,-294) scale(1,1)"><path fill="none" stroke="#000000" d="M 1062 491 L 1185.53076171875 491" stroke-miterlimit="10"/></g><g transform="translate(-542,-294) scale(1,1)"><path fill="none" stroke="#000000" d="M 1062 529 L 1185.53076171875 529" stroke-miterlimit="10"/></g><g transform="translate(-542,-294) scale(1,1)"><g><path fill="none" stroke="none"/><text fill="#000000" stroke="none" font-family="Arial" font-size="13px" font-style="normal" font-weight="bold" text-decoration="none" x="1099.92041015625" y="485.5">Objetivo</text></g></g><g transform="translate(-542,-294) scale(1,1)"><g><path fill="none" stroke="none"/><text fill="#000000" stroke="none" font-family="Arial" font-size="13px" font-style="normal" font-weight="normal" text-decoration="none" x="1067" y="508.5">+nombre: String</text></g></g><g transform="translate(-542,-294) scale(1,1)"><g><path fill="none" stroke="none"/><text fill="#000000" stroke="none" font-family="Arial" font-size="13px" font-style="normal" font-weight="normal" text-decoration="none" x="1067" y="523.5">+descripcion: String</text></g></g><g transform="translate(-542,-294) scale(1,1)"><rect fill="#C0C0C0" stroke="none" x="1063" y="593" width="126.03173828125" height="72" opacity="0.2"/></g><g transform="translate(-542,-294) scale(1,1)"><rect fill="#ffffff" stroke="none" x="1056" y="586" width="126.03173828125" height="72"/></g><g transform="translate(-542,-294) scale(1,1)"><path fill="none" stroke="#000000" d="M 1056 586 L 1182.03173828125 586 L 1182.03173828125 658 L 1056 658 L 1056 586 Z Z" stroke-miterlimit="10"/></g><g transform="translate(-542,-294) scale(1,1)"><path fill="none" stroke="#000000" d="M 1056 611 L 1182.03173828125 611" stroke-miterlimit="10"/></g><g transform="translate(-542,-294) scale(1,1)"><path fill="none" stroke="#000000" d="M 1056 649 L 1182.03173828125 649" stroke-miterlimit="10"/></g><g transform="translate(-542,-294) scale(1,1)"><g><path fill="none" stroke="none"/><text fill="#000000" stroke="none" font-family="Arial" font-size="13px" font-style="normal" font-weight="bold" text-decoration="none" x="1065.54638671875" y="605.5">ObjetivoEspecifico</text></g></g><g transform="translate(-542,-294) scale(1,1)"><g><path fill="none" stroke="none"/><text fill="#000000" stroke="none" font-family="Arial" font-size="13px" font-style="normal" font-weight="normal" text-decoration="none" x="1061" y="628.5">+nombre: String</text></g></g><g transform="translate(-542,-294) scale(1,1)"><g><path fill="none" stroke="none"/><text fill="#000000" stroke="none" font-family="Arial" font-size="13px" font-style="normal" font-weight="normal" text-decoration="none" x="1061" y="643.5">+descripcion: String</text></g></g><g transform="translate(-542,-294) scale(1,1)"><rect fill="#C0C0C0" stroke="none" x="799" y="311" width="123.53076171875" height="87" opacity="0.2"/></g><g transform="translate(-542,-294) scale(1,1)"><rect fill="#ffffff" stroke="none" x="792" y="304" width="123.53076171875" height="87"/></g><g transform="translate(-542,-294) scale(1,1)"><path fill="none" stroke="#000000" d="M 792 304 L 915.53076171875 304 L 915.53076171875 391 L 792 391 L 792 304 Z Z" stroke-miterlimit="10"/></g><g transform="translate(-542,-294) scale(1,1)"><path fill="none" stroke="#000000" d="M 792 329 L 915.53076171875 329" stroke-miterlimit="10"/></g><g transform="translate(-542,-294) scale(1,1)"><path fill="none" stroke="#000000" d="M 792 382 L 915.53076171875 382" stroke-miterlimit="10"/></g><g transform="translate(-542,-294) scale(1,1)"><g><path fill="none" stroke="none"/><text fill="#000000" stroke="none" font-family="Arial" font-size="13px" font-style="normal" font-weight="bold" text-decoration="none" x="836.779052734375" y="323.5">Etapa</text></g></g><g transform="translate(-542,-294) scale(1,1)"><g><path fill="none" stroke="none"/><text fill="#000000" stroke="none" font-family="Arial" font-size="13px" font-style="normal" font-weight="normal" text-decoration="none" x="797" y="346.5">+nombre: String</text></g></g><g transform="translate(-542,-294) scale(1,1)"><g><path fill="none" stroke="none"/><text fill="#000000" stroke="none" font-family="Arial" font-size="13px" font-style="normal" font-weight="normal" text-decoration="none" x="797" y="361.5">+descripcion: String</text></g></g><g transform="translate(-542,-294) scale(1,1)"><g><path fill="none" stroke="none"/><text fill="#000000" stroke="none" font-family="Arial" font-size="13px" font-style="normal" font-weight="normal" text-decoration="none" x="797" y="376.5">+duracion: String</text></g></g><g transform="translate(-542,-294) scale(1,1)"><rect fill="#C0C0C0" stroke="none" x="991" y="319" width="123.53076171875" height="72" opacity="0.2"/></g><g transform="translate(-542,-294) scale(1,1)"><rect fill="#ffffff" stroke="none" x="984" y="312" width="123.53076171875" height="72"/></g><g transform="translate(-542,-294) scale(1,1)"><path fill="none" stroke="#000000" d="M 984 312 L 1107.53076171875 312 L 1107.53076171875 384 L 984 384 L 984 312 Z Z" stroke-miterlimit="10"/></g><g transform="translate(-542,-294) scale(1,1)"><path fill="none" stroke="#000000" d="M 984 337 L 1107.53076171875 337" stroke-miterlimit="10"/></g><g transform="translate(-542,-294) scale(1,1)"><path fill="none" stroke="#000000" d="M 984 375 L 1107.53076171875 375" stroke-miterlimit="10"/></g><g transform="translate(-542,-294) scale(1,1)"><g><path fill="none" stroke="none"/><text fill="#000000" stroke="none" font-family="Arial" font-size="13px" font-style="normal" font-weight="bold" text-decoration="none" x="1031.31494140625" y="331.5">Meta</text></g></g><g transform="translate(-542,-294) scale(1,1)"><g><path fill="none" stroke="none"/><text fill="#000000" stroke="none" font-family="Arial" font-size="13px" font-style="normal" font-weight="normal" text-decoration="none" x="989" y="354.5">+nombre: String</text></g></g><g transform="translate(-542,-294) scale(1,1)"><g><path fill="none" stroke="none"/><text fill="#000000" stroke="none" font-family="Arial" font-size="13px" font-style="normal" font-weight="normal" text-decoration="none" x="989" y="369.5">+descripcion: String</text></g></g><g transform="translate(-542,-294) scale(1,1)"><rect fill="#C0C0C0" stroke="none" x="1167" y="335" width="76.18359375" height="44" opacity="0.2"/></g><g transform="translate(-542,-294) scale(1,1)"><rect fill="#ffffff" stroke="none" x="1160" y="328" width="76.18359375" height="44"/></g><g transform="translate(-542,-294) scale(1,1)"><path fill="none" stroke="#000000" d="M 1160 328 L 1236.18359375 328 L 1236.18359375 372 L 1160 372 L 1160 328 Z Z" stroke-miterlimit="10"/></g><g transform="translate(-542,-294) scale(1,1)"><path fill="none" stroke="#000000" d="M 1160 353 L 1236.18359375 353" stroke-miterlimit="10"/></g><g transform="translate(-542,-294) scale(1,1)"><path fill="none" stroke="#000000" d="M 1160 363 L 1236.18359375 363" stroke-miterlimit="10"/></g><g transform="translate(-542,-294) scale(1,1)"><g><path fill="none" stroke="none"/><text fill="#000000" stroke="none" font-family="Arial" font-size="13px" font-style="normal" font-weight="bold" text-decoration="none" x="1166.65185546875" y="347.5">Entregable</text></g></g><g transform="translate(-542,-294) scale(1,1)"><rect fill="#C0C0C0" stroke="none" x="1232" y="479" width="47.27001953125" height="44" opacity="0.2"/></g><g transform="translate(-542,-294) scale(1,1)"><rect fill="#ffffff" stroke="none" x="1225" y="472" width="47.27001953125" height="44"/></g><g transform="translate(-542,-294) scale(1,1)"><path fill="none" stroke="#000000" d="M 1225 472 L 1272.27001953125 472 L 1272.27001953125 516 L 1225 516 L 1225 472 Z Z" stroke-miterlimit="10"/></g><g transform="translate(-542,-294) scale(1,1)"><path fill="none" stroke="#000000" d="M 1225 497 L 1272.27001953125 497" stroke-miterlimit="10"/></g><g transform="translate(-542,-294) scale(1,1)"><path fill="none" stroke="#000000" d="M 1225 507 L 1272.27001953125 507" stroke-miterlimit="10"/></g><g transform="translate(-542,-294) scale(1,1)"><g><path fill="none" stroke="none"/><text fill="#000000" stroke="none" font-family="Arial" font-size="13px" font-style="normal" font-weight="bold" text-decoration="none" x="1230.931396484375" y="491.5">Rubro</text></g></g></g></svg>