<svg version="1.1" xmlns="http://www.w3.org/2000/svg" xmlns:xlink="http://www.w3.org/1999/xlink" width="627.8515625" height="192"><defs/><g><text fill="#eeeeee" stroke="none" font-family="Arial" font-size="24px" font-style="normal" font-weight="normal" text-decoration="none" x="0" y="0">UNREGISTERED</text><text fill="#eeeeee" stroke="none" font-family="Arial" font-size="24px" font-style="normal" font-weight="normal" text-decoration="none" x="0" y="30">UNREGISTERED</text><text fill="#eeeeee" stroke="none" font-family="Arial" font-size="24px" font-style="normal" font-weight="normal" text-decoration="none" x="0" y="60">UNREGISTERED</text><text fill="#eeeeee" stroke="none" font-family="Arial" font-size="24px" font-style="normal" font-weight="normal" text-decoration="none" x="0" y="90">UNREGISTERED</text><text fill="#eeeeee" stroke="none" font-family="Arial" font-size="24px" font-style="normal" font-weight="normal" text-decoration="none" x="0" y="120">UNREGISTERED</text><text fill="#eeeeee" stroke="none" font-family="Arial" font-size="24px" font-style="normal" font-weight="normal" text-decoration="none" x="0" y="150">UNREGISTERED</text><text fill="#eeeeee" stroke="none" font-family="Arial" font-size="24px" font-style="normal" font-weight="normal" text-decoration="none" x="0" y="180">UNREGISTERED</text><text fill="#eeeeee" stroke="none" font-family="Arial" font-size="24px" font-style="normal" font-weight="normal" text-decoration="none" x="200" y="0">UNREGISTERED</text><text fill="#eeeeee" stroke="none" font-family="Arial" font-size="24px" font-style="normal" font-weight="normal" text-decoration="none" x="200" y="30">UNREGISTERED</text><text fill="#eeeeee" stroke="none" font-family="Arial" font-size="24px" font-style="normal" font-weight="normal" text-decoration="none" x="200" y="60">UNREGISTERED</text><text fill="#eeeeee" stroke="none" font-family="Arial" font-size="24px" font-style="normal" font-weight="normal" text-decoration="none" x="200" y="90">UNREGISTERED</text><text fill="#eeeeee" stroke="none" font-family="Arial" font-size="24px" font-style="normal" font-weight="normal" text-decoration="none" x="200" y="120">UNREGISTERED</text><text fill="#eeeeee" stroke="none" font-family="Arial" font-size="24px" font-style="normal" font-weight="normal" text-decoration="none" x="200" y="150">UNREGISTERED</text><text fill="#eeeeee" stroke="none" font-family="Arial" font-size="24px" font-style="normal" font-weight="normal" text-decoration="none" x="200" y="180">UNREGISTERED</text><text fill="#eeeeee" stroke="none" font-family="Arial" font-size="24px" font-style="normal" font-weight="normal" text-decoration="none" x="400" y="0">UNREGISTERED</text><text fill="#eeeeee" stroke="none" font-family="Arial" font-size="24px" font-style="normal" font-weight="normal" text-decoration="none" x="400" y="30">UNREGISTERED</text><text fill="#eeeeee" stroke="none" font-family="Arial" font-size="24px" font-style="normal" font-weight="normal" text-decoration="none" x="400" y="60">UNREGISTERED</text><text fill="#eeeeee" stroke="none" font-family="Arial" font-size="24px" font-style="normal" font-weight="normal" text-decoration="none" x="400" y="90">UNREGISTERED</text><text fill="#eeeeee" stroke="none" font-family="Arial" font-size="24px" font-style="normal" font-weight="normal" text-decoration="none" x="400" y="120">UNREGISTERED</text><text fill="#eeeeee" stroke="none" font-family="Arial" font-size="24px" font-style="normal" font-weight="normal" text-decoration="none" x="400" y="150">UNREGISTERED</text><text fill="#eeeeee" stroke="none" font-family="Arial" font-size="24px" font-style="normal" font-weight="normal" text-decoration="none" x="400" y="180">UNREGISTERED</text><text fill="#eeeeee" stroke="none" font-family="Arial" font-size="24px" font-style="normal" font-weight="normal" text-decoration="none" x="600" y="0">UNREGISTERED</text><text fill="#eeeeee" stroke="none" font-family="Arial" font-size="24px" font-style="normal" font-weight="normal" text-decoration="none" x="600" y="30">UNREGISTERED</text><text fill="#eeeeee" stroke="none" font-family="Arial" font-size="24px" font-style="normal" font-weight="normal" text-decoration="none" x="600" y="60">UNREGISTERED</text><text fill="#eeeeee" stroke="none" font-family="Arial" font-size="24px" font-style="normal" font-weight="normal" text-decoration="none" x="600" y="90">UNREGISTERED</text><text fill="#eeeeee" stroke="none" font-family="Arial" font-size="24px" font-style="normal" font-weight="normal" text-decoration="none" x="600" y="120">UNREGISTERED</text><text fill="#eeeeee" stroke="none" font-family="Arial" font-size="24px" font-style="normal" font-weight="normal" text-decoration="none" x="600" y="150">UNREGISTERED</text><text fill="#eeeeee" stroke="none" font-family="Arial" font-size="24px" font-style="normal" font-weight="normal" text-decoration="none" x="600" y="180">UNREGISTERED</text><g transform="translate(-461,-318) scale(1,1)"><rect fill="#C0C0C0" stroke="none" x="478" y="441" width="37.9072265625" height="44" opacity="0.2"/></g><g transform="translate(-461,-318) scale(1,1)"><rect fill="#ffffff" stroke="none" x="471" y="434" width="37.9072265625" height="44"/></g><g transform="translate(-461,-318) scale(1,1)"><path fill="none" stroke="#000000" d="M 471 434 L 508.9072265625 434 L 508.9072265625 478 L 471 478 L 471 434 Z Z" stroke-miterlimit="10"/></g><g transform="translate(-461,-318) scale(1,1)"><path fill="none" stroke="#000000" d="M 471 459 L 508.9072265625 459" stroke-miterlimit="10"/></g><g transform="translate(-461,-318) scale(1,1)"><path fill="none" stroke="#000000" d="M 471 469 L 508.9072265625 469" stroke-miterlimit="10"/></g><g transform="translate(-461,-318) scale(1,1)"><g><path fill="none" stroke="none"/><text fill="#000000" stroke="none" font-family="Arial" font-size="13px" font-style="normal" font-weight="bold" text-decoration="none" x="476.2236328125" y="453.5">Area</text></g></g><g transform="translate(-461,-318) scale(1,1)"><rect fill="#C0C0C0" stroke="none" x="574" y="463" width="53.05908203125" height="44" opacity="0.2"/></g><g transform="translate(-461,-318) scale(1,1)"><rect fill="#ffffff" stroke="none" x="567" y="456" width="53.05908203125" height="44"/></g><g transform="translate(-461,-318) scale(1,1)"><path fill="none" stroke="#000000" d="M 567 456 L 620.05908203125 456 L 620.05908203125 500 L 567 500 L 567 456 Z Z" stroke-miterlimit="10"/></g><g transform="translate(-461,-318) scale(1,1)"><path fill="none" stroke="#000000" d="M 567 481 L 620.05908203125 481" stroke-miterlimit="10"/></g><g transform="translate(-461,-318) scale(1,1)"><path fill="none" stroke="#000000" d="M 567 491 L 620.05908203125 491" stroke-miterlimit="10"/></g><g transform="translate(-461,-318) scale(1,1)"><g><path fill="none" stroke="none"/><text fill="#000000" stroke="none" font-family="Arial" font-size="13px" font-style="normal" font-weight="bold" text-decoration="none" x="572.575927734375" y="475.5">Campo</text></g></g><g transform="translate(-461,-318) scale(1,1)"><rect fill="#C0C0C0" stroke="none" x="691" y="462" width="70.4072265625" height="44" opacity="0.2"/></g><g transform="translate(-461,-318) scale(1,1)"><rect fill="#ffffff" stroke="none" x="684" y="455" width="70.4072265625" height="44"/></g><g transform="translate(-461,-318) scale(1,1)"><path fill="none" stroke="#000000" d="M 684 455 L 754.4072265625 455 L 754.4072265625 499 L 684 499 L 684 455 Z Z" stroke-miterlimit="10"/></g><g transform="translate(-461,-318) scale(1,1)"><path fill="none" stroke="#000000" d="M 684 480 L 754.4072265625 480" stroke-miterlimit="10"/></g><g transform="translate(-461,-318) scale(1,1)"><path fill="none" stroke="#000000" d="M 684 490 L 754.4072265625 490" stroke-miterlimit="10"/></g><g transform="translate(-461,-318) scale(1,1)"><g><path fill="none" stroke="none"/><text fill="#000000" stroke="none" font-family="Arial" font-size="13px" font-style="normal" font-weight="bold" text-decoration="none" x="691.38818359375" y="474.5">Disciplina</text></g></g><g transform="translate(-461,-318) scale(1,1)"><rect fill="#C0C0C0" stroke="none" x="803" y="461" width="93.5126953125" height="44" opacity="0.2"/></g><g transform="translate(-461,-318) scale(1,1)"><rect fill="#ffffff" stroke="none" x="796" y="454" width="93.5126953125" height="44"/></g><g transform="translate(-461,-318) scale(1,1)"><path fill="none" stroke="#000000" d="M 796 454 L 889.5126953125 454 L 889.5126953125 498 L 796 498 L 796 454 Z Z" stroke-miterlimit="10"/></g><g transform="translate(-461,-318) scale(1,1)"><path fill="none" stroke="#000000" d="M 796 479 L 889.5126953125 479" stroke-miterlimit="10"/></g><g transform="translate(-461,-318) scale(1,1)"><path fill="none" stroke="#000000" d="M 796 489 L 889.5126953125 489" stroke-miterlimit="10"/></g><g transform="translate(-461,-318) scale(1,1)"><g><path fill="none" stroke="none"/><text fill="#000000" stroke="none" font-family="Arial" font-size="13px" font-style="normal" font-weight="bold" text-decoration="none" x="804.45458984375" y="473.5">Subdisciplina</text></g></g><g transform="translate(-461,-318) scale(1,1)"><rect fill="#C0C0C0" stroke="none" x="911" y="393" width="174.8515625" height="72" opacity="0.2"/></g><g transform="translate(-461,-318) scale(1,1)"><rect fill="#ffffff" stroke="none" x="904" y="386" width="174.8515625" height="72"/></g><g transform="translate(-461,-318) scale(1,1)"><path fill="none" stroke="#000000" d="M 904 386 L 1078.8515625 386 L 1078.8515625 458 L 904 458 L 904 386 Z Z" stroke-miterlimit="10"/></g><g transform="translate(-461,-318) scale(1,1)"><path fill="none" stroke="#000000" d="M 904 411 L 1078.8515625 411" stroke-miterlimit="10"/></g><g transform="translate(-461,-318) scale(1,1)"><path fill="none" stroke="#000000" d="M 904 449 L 1078.8515625 449" stroke-miterlimit="10"/></g><g transform="translate(-461,-318) scale(1,1)"><g><path fill="none" stroke="none"/><text fill="#000000" stroke="none" font-family="Arial" font-size="13px" font-style="normal" font-weight="bold" text-decoration="none" x="954.568115234375" y="405.5">Especialidad</text></g></g><g transform="translate(-461,-318) scale(1,1)"><g><path fill="none" stroke="none"/><text fill="#000000" stroke="none" font-family="Arial" font-size="13px" font-style="normal" font-weight="normal" text-decoration="none" x="909" y="428.5">+nombre: String</text></g></g><g transform="translate(-461,-318) scale(1,1)"><g><path fill="none" stroke="none"/><text fill="#000000" stroke="none" font-family="Arial" font-size="13px" font-style="normal" font-weight="normal" text-decoration="none" x="909" y="443.5">+subdisciplina: Subdisciplina</text></g></g><g transform="translate(-461,-318) scale(1,1)"><path fill="#C0C0C0" stroke="none" d="M 687.25634765625 346.5 C 687.25634765625 340.1487248 692.40507245625 335 698.75634765625 335 C 705.10762285625 335 710.25634765625 340.1487248 710.25634765625 346.5 C 710.25634765625 352.8512752 705.10762285625 358 698.75634765625 358 C 692.40507245625 358 687.25634765625 352.8512752 687.25634765625 346.5 Z" opacity="0.2"/></g><g transform="translate(-461,-318) scale(1,1)"><path fill="#ffffff" stroke="none" d="M 680.25634765625 339.5 C 680.25634765625 333.1487248 685.40507245625 328 691.75634765625 328 C 698.10762285625 328 703.25634765625 333.1487248 703.25634765625 339.5 C 703.25634765625 345.8512752 698.10762285625 351 691.75634765625 351 C 685.40507245625 351 680.25634765625 345.8512752 680.25634765625 339.5 Z"/></g><g transform="translate(-461,-318) scale(1,1)"><path fill="none" stroke="#000000" d="M 680.25634765625 339.5 C 680.25634765625 333.1487248 685.40507245625 328 691.75634765625 328 C 698.10762285625 328 703.25634765625 333.1487248 703.25634765625 339.5 C 703.25634765625 345.8512752 698.10762285625 351 691.75634765625 351 C 685.40507245625 351 680.25634765625 345.8512752 680.25634765625 339.5 Z" stroke-miterlimit="10"/></g><g transform="translate(-461,-318) scale(1,1)"><g><path fill="none" stroke="none"/><text fill="#000000" stroke="none" font-family="Arial" font-size="13px" font-style="normal" font-weight="bold" text-decoration="none" x="640.09912109375" y="370.5">CampoFormacion</text></g></g><g transform="translate(-461,-318) scale(1,1)"><path fill="none" stroke="#000000" d="M 510 445 L 680.25634765625 347.3318120216837" stroke-miterlimit="10"/></g><g transform="translate(-461,-318) scale(1,1)"><path fill="none" stroke="#000000" d="M 611 455 L 685 351" stroke-miterlimit="10"/></g><g transform="translate(-461,-318) scale(1,1)"><path fill="none" stroke="#000000" d="M 714 454 L 692.8947368421053 351" stroke-miterlimit="10"/></g><g transform="translate(-461,-318) scale(1,1)"><path fill="none" stroke="#000000" d="M 814 453 L 700.4736842105264 351" stroke-miterlimit="10"/></g><g transform="translate(-461,-318) scale(1,1)"><path fill="none" stroke="#000000" d="M 903 401 L 703.25634765625 344.3374417212702" stroke-miterlimit="10"/></g></g></svg>