<svg version="1.1" xmlns="http://www.w3.org/2000/svg" xmlns:xlink="http://www.w3.org/1999/xlink" width="523.72802734375" height="208"><defs/><g><text fill="#eeeeee" stroke="none" font-family="Arial" font-size="24px" font-style="normal" font-weight="normal" text-decoration="none" x="0" y="0">UNREGISTERED</text><text fill="#eeeeee" stroke="none" font-family="Arial" font-size="24px" font-style="normal" font-weight="normal" text-decoration="none" x="0" y="30">UNREGISTERED</text><text fill="#eeeeee" stroke="none" font-family="Arial" font-size="24px" font-style="normal" font-weight="normal" text-decoration="none" x="0" y="60">UNREGISTERED</text><text fill="#eeeeee" stroke="none" font-family="Arial" font-size="24px" font-style="normal" font-weight="normal" text-decoration="none" x="0" y="90">UNREGISTERED</text><text fill="#eeeeee" stroke="none" font-family="Arial" font-size="24px" font-style="normal" font-weight="normal" text-decoration="none" x="0" y="120">UNREGISTERED</text><text fill="#eeeeee" stroke="none" font-family="Arial" font-size="24px" font-style="normal" font-weight="normal" text-decoration="none" x="0" y="150">UNREGISTERED</text><text fill="#eeeeee" stroke="none" font-family="Arial" font-size="24px" font-style="normal" font-weight="normal" text-decoration="none" x="0" y="180">UNREGISTERED</text><text fill="#eeeeee" stroke="none" font-family="Arial" font-size="24px" font-style="normal" font-weight="normal" text-decoration="none" x="200" y="0">UNREGISTERED</text><text fill="#eeeeee" stroke="none" font-family="Arial" font-size="24px" font-style="normal" font-weight="normal" text-decoration="none" x="200" y="30">UNREGISTERED</text><text fill="#eeeeee" stroke="none" font-family="Arial" font-size="24px" font-style="normal" font-weight="normal" text-decoration="none" x="200" y="60">UNREGISTERED</text><text fill="#eeeeee" stroke="none" font-family="Arial" font-size="24px" font-style="normal" font-weight="normal" text-decoration="none" x="200" y="90">UNREGISTERED</text><text fill="#eeeeee" stroke="none" font-family="Arial" font-size="24px" font-style="normal" font-weight="normal" text-decoration="none" x="200" y="120">UNREGISTERED</text><text fill="#eeeeee" stroke="none" font-family="Arial" font-size="24px" font-style="normal" font-weight="normal" text-decoration="none" x="200" y="150">UNREGISTERED</text><text fill="#eeeeee" stroke="none" font-family="Arial" font-size="24px" font-style="normal" font-weight="normal" text-decoration="none" x="200" y="180">UNREGISTERED</text><text fill="#eeeeee" stroke="none" font-family="Arial" font-size="24px" font-style="normal" font-weight="normal" text-decoration="none" x="400" y="0">UNREGISTERED</text><text fill="#eeeeee" stroke="none" font-family="Arial" font-size="24px" font-style="normal" font-weight="normal" text-decoration="none" x="400" y="30">UNREGISTERED</text><text fill="#eeeeee" stroke="none" font-family="Arial" font-size="24px" font-style="normal" font-weight="normal" text-decoration="none" x="400" y="60">UNREGISTERED</text><text fill="#eeeeee" stroke="none" font-family="Arial" font-size="24px" font-style="normal" font-weight="normal" text-decoration="none" x="400" y="90">UNREGISTERED</text><text fill="#eeeeee" stroke="none" font-family="Arial" font-size="24px" font-style="normal" font-weight="normal" text-decoration="none" x="400" y="120">UNREGISTERED</text><text fill="#eeeeee" stroke="none" font-family="Arial" font-size="24px" font-style="normal" font-weight="normal" text-decoration="none" x="400" y="150">UNREGISTERED</text><text fill="#eeeeee" stroke="none" font-family="Arial" font-size="24px" font-style="normal" font-weight="normal" text-decoration="none" x="400" y="180">UNREGISTERED</text><g transform="translate(-880,-503) scale(1,1)"><rect fill="#C0C0C0" stroke="none" x="897" y="535" width="132.5380859375" height="57" opacity="0.2"/></g><g transform="translate(-880,-503) scale(1,1)"><rect fill="#ffffff" stroke="none" x="890" y="528" width="132.5380859375" height="57"/></g><g transform="translate(-880,-503) scale(1,1)"><path fill="none" stroke="#000000" d="M 890 528 L 1022.5380859375 528 L 1022.5380859375 585 L 890 585 L 890 528 Z Z" stroke-miterlimit="10"/></g><g transform="translate(-880,-503) scale(1,1)"><path fill="none" stroke="#000000" d="M 890 553 L 1022.5380859375 553" stroke-miterlimit="10"/></g><g transform="translate(-880,-503) scale(1,1)"><path fill="none" stroke="#000000" d="M 890 576 L 1022.5380859375 576" stroke-miterlimit="10"/></g><g transform="translate(-880,-503) scale(1,1)"><g><path fill="none" stroke="none"/><text fill="#000000" stroke="none" font-family="Arial" font-size="13px" font-style="normal" font-weight="bold" text-decoration="none" x="898.82275390625" y="547.5">DesgloseFinanciero</text></g></g><g transform="translate(-880,-503) scale(1,1)"><g><path fill="none" stroke="none"/><text fill="#000000" stroke="none" font-family="Arial" font-size="13px" font-style="normal" font-weight="normal" text-decoration="none" x="895" y="570.5">-gastos: Gasto[*]</text></g></g><g transform="translate(-880,-503) scale(1,1)"><rect fill="#C0C0C0" stroke="none" x="1105" y="561" width="166.03466796875" height="147" opacity="0.2"/></g><g transform="translate(-880,-503) scale(1,1)"><rect fill="#ffffff" stroke="none" x="1098" y="554" width="166.03466796875" height="147"/></g><g transform="translate(-880,-503) scale(1,1)"><path fill="none" stroke="#000000" d="M 1098 554 L 1264.03466796875 554 L 1264.03466796875 701 L 1098 701 L 1098 554 Z Z" stroke-miterlimit="10"/></g><g transform="translate(-880,-503) scale(1,1)"><path fill="none" stroke="#000000" d="M 1098 579 L 1264.03466796875 579" stroke-miterlimit="10"/></g><g transform="translate(-880,-503) scale(1,1)"><path fill="none" stroke="#000000" d="M 1098 692 L 1264.03466796875 692" stroke-miterlimit="10"/></g><g transform="translate(-880,-503) scale(1,1)"><g><path fill="none" stroke="none"/><text fill="#000000" stroke="none" font-family="Arial" font-size="13px" font-style="normal" font-weight="bold" text-decoration="none" x="1163.675537109375" y="573.5">Gasto</text></g></g><g transform="translate(-880,-503) scale(1,1)"><g><path fill="none" stroke="none"/><text fill="#000000" stroke="none" font-family="Arial" font-size="13px" font-style="normal" font-weight="normal" text-decoration="none" x="1103" y="596.5">#importe: Float</text></g></g><g transform="translate(-880,-503) scale(1,1)"><g><path fill="none" stroke="none"/><text fill="#000000" stroke="none" font-family="Arial" font-size="13px" font-style="normal" font-weight="normal" text-decoration="none" x="1103" y="611.5">#justificacion: String</text></g></g><g transform="translate(-880,-503) scale(1,1)"><g><path fill="none" stroke="none"/><text fill="#000000" stroke="none" font-family="Arial" font-size="13px" font-style="normal" font-weight="normal" text-decoration="none" x="1103" y="626.5">#etapa: Etapa</text></g></g><g transform="translate(-880,-503) scale(1,1)"><g><path fill="none" stroke="none"/><text fill="#000000" stroke="none" font-family="Arial" font-size="13px" font-style="normal" font-weight="normal" text-decoration="none" x="1103" y="641.5">#tipoRecurso: TipoRecurso</text></g></g><g transform="translate(-880,-503) scale(1,1)"><g><path fill="none" stroke="none"/><text fill="#000000" stroke="none" font-family="Arial" font-size="13px" font-style="normal" font-weight="normal" text-decoration="none" x="1103" y="656.5">#tipoGasto: TipoGasto</text></g></g><g transform="translate(-880,-503) scale(1,1)"><g><path fill="none" stroke="none"/><text fill="#000000" stroke="none" font-family="Arial" font-size="13px" font-style="normal" font-weight="normal" text-decoration="none" x="1103" y="671.5">#rubro: Rubro</text></g></g><g transform="translate(-880,-503) scale(1,1)"><g><path fill="none" stroke="none"/><text fill="#000000" stroke="none" font-family="Arial" font-size="13px" font-style="normal" font-weight="normal" text-decoration="none" x="1103" y="686.5">#persona: Persona</text></g></g><g transform="translate(-880,-503) scale(1,1)"><rect fill="#C0C0C0" stroke="none" x="1281" y="520" width="95.72802734375" height="47" opacity="0.2"/></g><g transform="translate(-880,-503) scale(1,1)"><rect fill="#ffffff" stroke="none" x="1274" y="513" width="95.72802734375" height="47"/></g><g transform="translate(-880,-503) scale(1,1)"><path fill="none" stroke="#000000" d="M 1274 513 L 1369.72802734375 513 L 1369.72802734375 560 L 1274 560 L 1274 513 Z Z" stroke-miterlimit="10"/></g><g transform="translate(-880,-503) scale(1,1)"><path fill="none" stroke="#000000" d="M 1274 551 L 1369.72802734375 551" stroke-miterlimit="10"/></g><g transform="translate(-880,-503) scale(1,1)"><g><path fill="none" stroke="none"/><text fill="#000000" stroke="none" font-family="Arial" font-size="13px" font-style="normal" font-weight="normal" text-decoration="none" x="1278.5" y="530.5">«enumeration»</text></g></g><g transform="translate(-880,-503) scale(1,1)"><g><path fill="none" stroke="none"/><text fill="#000000" stroke="none" font-family="Arial" font-size="13px" font-style="normal" font-weight="bold" text-decoration="none" x="1285.257080078125" y="545.5">TipoRecurso</text></g></g><g transform="translate(-880,-503) scale(1,1)"><rect fill="#C0C0C0" stroke="none" x="1305" y="605" width="95.72802734375" height="47" opacity="0.2"/></g><g transform="translate(-880,-503) scale(1,1)"><rect fill="#ffffff" stroke="none" x="1298" y="598" width="95.72802734375" height="47"/></g><g transform="translate(-880,-503) scale(1,1)"><path fill="none" stroke="#000000" d="M 1298 598 L 1393.72802734375 598 L 1393.72802734375 645 L 1298 645 L 1298 598 Z Z" stroke-miterlimit="10"/></g><g transform="translate(-880,-503) scale(1,1)"><path fill="none" stroke="#000000" d="M 1298 636 L 1393.72802734375 636" stroke-miterlimit="10"/></g><g transform="translate(-880,-503) scale(1,1)"><g><path fill="none" stroke="none"/><text fill="#000000" stroke="none" font-family="Arial" font-size="13px" font-style="normal" font-weight="normal" text-decoration="none" x="1302.5" y="615.5">«enumeration»</text></g></g><g transform="translate(-880,-503) scale(1,1)"><g><path fill="none" stroke="none"/><text fill="#000000" stroke="none" font-family="Arial" font-size="13px" font-style="normal" font-weight="bold" text-decoration="none" x="1315.515869140625" y="630.5">TIpoGasto</text></g></g></g></svg>