<svg version="1.1" xmlns="http://www.w3.org/2000/svg" xmlns:xlink="http://www.w3.org/1999/xlink" width="729.1552734375" height="597"><defs/><g><text fill="#eeeeee" stroke="none" font-family="Arial" font-size="24px" font-style="normal" font-weight="normal" text-decoration="none" x="0" y="0">UNREGISTERED</text><text fill="#eeeeee" stroke="none" font-family="Arial" font-size="24px" font-style="normal" font-weight="normal" text-decoration="none" x="0" y="30">UNREGISTERED</text><text fill="#eeeeee" stroke="none" font-family="Arial" font-size="24px" font-style="normal" font-weight="normal" text-decoration="none" x="0" y="60">UNREGISTERED</text><text fill="#eeeeee" stroke="none" font-family="Arial" font-size="24px" font-style="normal" font-weight="normal" text-decoration="none" x="0" y="90">UNREGISTERED</text><text fill="#eeeeee" stroke="none" font-family="Arial" font-size="24px" font-style="normal" font-weight="normal" text-decoration="none" x="0" y="120">UNREGISTERED</text><text fill="#eeeeee" stroke="none" font-family="Arial" font-size="24px" font-style="normal" font-weight="normal" text-decoration="none" x="0" y="150">UNREGISTERED</text><text fill="#eeeeee" stroke="none" font-family="Arial" font-size="24px" font-style="normal" font-weight="normal" text-decoration="none" x="0" y="180">UNREGISTERED</text><text fill="#eeeeee" stroke="none" font-family="Arial" font-size="24px" font-style="normal" font-weight="normal" text-decoration="none" x="0" y="210">UNREGISTERED</text><text fill="#eeeeee" stroke="none" font-family="Arial" font-size="24px" font-style="normal" font-weight="normal" text-decoration="none" x="0" y="240">UNREGISTERED</text><text fill="#eeeeee" stroke="none" font-family="Arial" font-size="24px" font-style="normal" font-weight="normal" text-decoration="none" x="0" y="270">UNREGISTERED</text><text fill="#eeeeee" stroke="none" font-family="Arial" font-size="24px" font-style="normal" font-weight="normal" text-decoration="none" x="0" y="300">UNREGISTERED</text><text fill="#eeeeee" stroke="none" font-family="Arial" font-size="24px" font-style="normal" font-weight="normal" text-decoration="none" x="0" y="330">UNREGISTERED</text><text fill="#eeeeee" stroke="none" font-family="Arial" font-size="24px" font-style="normal" font-weight="normal" text-decoration="none" x="0" y="360">UNREGISTERED</text><text fill="#eeeeee" stroke="none" font-family="Arial" font-size="24px" font-style="normal" font-weight="normal" text-decoration="none" x="0" y="390">UNREGISTERED</text><text fill="#eeeeee" stroke="none" font-family="Arial" font-size="24px" font-style="normal" font-weight="normal" text-decoration="none" x="0" y="420">UNREGISTERED</text><text fill="#eeeeee" stroke="none" font-family="Arial" font-size="24px" font-style="normal" font-weight="normal" text-decoration="none" x="0" y="450">UNREGISTERED</text><text fill="#eeeeee" stroke="none" font-family="Arial" font-size="24px" font-style="normal" font-weight="normal" text-decoration="none" x="0" y="480">UNREGISTERED</text><text fill="#eeeeee" stroke="none" font-family="Arial" font-size="24px" font-style="normal" font-weight="normal" text-decoration="none" x="0" y="510">UNREGISTERED</text><text fill="#eeeeee" stroke="none" font-family="Arial" font-size="24px" font-style="normal" font-weight="normal" text-decoration="none" x="0" y="540">UNREGISTERED</text><text fill="#eeeeee" stroke="none" font-family="Arial" font-size="24px" font-style="normal" font-weight="normal" text-decoration="none" x="0" y="570">UNREGISTERED</text><text fill="#eeeeee" stroke="none" font-family="Arial" font-size="24px" font-style="normal" font-weight="normal" text-decoration="none" x="200" y="0">UNREGISTERED</text><text fill="#eeeeee" stroke="none" font-family="Arial" font-size="24px" font-style="normal" font-weight="normal" text-decoration="none" x="200" y="30">UNREGISTERED</text><text fill="#eeeeee" stroke="none" font-family="Arial" font-size="24px" font-style="normal" font-weight="normal" text-decoration="none" x="200" y="60">UNREGISTERED</text><text fill="#eeeeee" stroke="none" font-family="Arial" font-size="24px" font-style="normal" font-weight="normal" text-decoration="none" x="200" y="90">UNREGISTERED</text><text fill="#eeeeee" stroke="none" font-family="Arial" font-size="24px" font-style="normal" font-weight="normal" text-decoration="none" x="200" y="120">UNREGISTERED</text><text fill="#eeeeee" stroke="none" font-family="Arial" font-size="24px" font-style="normal" font-weight="normal" text-decoration="none" x="200" y="150">UNREGISTERED</text><text fill="#eeeeee" stroke="none" font-family="Arial" font-size="24px" font-style="normal" font-weight="normal" text-decoration="none" x="200" y="180">UNREGISTERED</text><text fill="#eeeeee" stroke="none" font-family="Arial" font-size="24px" font-style="normal" font-weight="normal" text-decoration="none" x="200" y="210">UNREGISTERED</text><text fill="#eeeeee" stroke="none" font-family="Arial" font-size="24px" font-style="normal" font-weight="normal" text-decoration="none" x="200" y="240">UNREGISTERED</text><text fill="#eeeeee" stroke="none" font-family="Arial" font-size="24px" font-style="normal" font-weight="normal" text-decoration="none" x="200" y="270">UNREGISTERED</text><text fill="#eeeeee" stroke="none" font-family="Arial" font-size="24px" font-style="normal" font-weight="normal" text-decoration="none" x="200" y="300">UNREGISTERED</text><text fill="#eeeeee" stroke="none" font-family="Arial" font-size="24px" font-style="normal" font-weight="normal" text-decoration="none" x="200" y="330">UNREGISTERED</text><text fill="#eeeeee" stroke="none" font-family="Arial" font-size="24px" font-style="normal" font-weight="normal" text-decoration="none" x="200" y="360">UNREGISTERED</text><text fill="#eeeeee" stroke="none" font-family="Arial" font-size="24px" font-style="normal" font-weight="normal" text-decoration="none" x="200" y="390">UNREGISTERED</text><text fill="#eeeeee" stroke="none" font-family="Arial" font-size="24px" font-style="normal" font-weight="normal" text-decoration="none" x="200" y="420">UNREGISTERED</text><text fill="#eeeeee" stroke="none" font-family="Arial" font-size="24px" font-style="normal" font-weight="normal" text-decoration="none" x="200" y="450">UNREGISTERED</text><text fill="#eeeeee" stroke="none" font-family="Arial" font-size="24px" font-style="normal" font-weight="normal" text-decoration="none" x="200" y="480">UNREGISTERED</text><text fill="#eeeeee" stroke="none" font-family="Arial" font-size="24px" font-style="normal" font-weight="normal" text-decoration="none" x="200" y="510">UNREGISTERED</text><text fill="#eeeeee" stroke="none" font-family="Arial" font-size="24px" font-style="normal" font-weight="normal" text-decoration="none" x="200" y="540">UNREGISTERED</text><text fill="#eeeeee" stroke="none" font-family="Arial" font-size="24px" font-style="normal" font-weight="normal" text-decoration="none" x="200" y="570">UNREGISTERED</text><text fill="#eeeeee" stroke="none" font-family="Arial" font-size="24px" font-style="normal" font-weight="normal" text-decoration="none" x="400" y="0">UNREGISTERED</text><text fill="#eeeeee" stroke="none" font-family="Arial" font-size="24px" font-style="normal" font-weight="normal" text-decoration="none" x="400" y="30">UNREGISTERED</text><text fill="#eeeeee" stroke="none" font-family="Arial" font-size="24px" font-style="normal" font-weight="normal" text-decoration="none" x="400" y="60">UNREGISTERED</text><text fill="#eeeeee" stroke="none" font-family="Arial" font-size="24px" font-style="normal" font-weight="normal" text-decoration="none" x="400" y="90">UNREGISTERED</text><text fill="#eeeeee" stroke="none" font-family="Arial" font-size="24px" font-style="normal" font-weight="normal" text-decoration="none" x="400" y="120">UNREGISTERED</text><text fill="#eeeeee" stroke="none" font-family="Arial" font-size="24px" font-style="normal" font-weight="normal" text-decoration="none" x="400" y="150">UNREGISTERED</text><text fill="#eeeeee" stroke="none" font-family="Arial" font-size="24px" font-style="normal" font-weight="normal" text-decoration="none" x="400" y="180">UNREGISTERED</text><text fill="#eeeeee" stroke="none" font-family="Arial" font-size="24px" font-style="normal" font-weight="normal" text-decoration="none" x="400" y="210">UNREGISTERED</text><text fill="#eeeeee" stroke="none" font-family="Arial" font-size="24px" font-style="normal" font-weight="normal" text-decoration="none" x="400" y="240">UNREGISTERED</text><text fill="#eeeeee" stroke="none" font-family="Arial" font-size="24px" font-style="normal" font-weight="normal" text-decoration="none" x="400" y="270">UNREGISTERED</text><text fill="#eeeeee" stroke="none" font-family="Arial" font-size="24px" font-style="normal" font-weight="normal" text-decoration="none" x="400" y="300">UNREGISTERED</text><text fill="#eeeeee" stroke="none" font-family="Arial" font-size="24px" font-style="normal" font-weight="normal" text-decoration="none" x="400" y="330">UNREGISTERED</text><text fill="#eeeeee" stroke="none" font-family="Arial" font-size="24px" font-style="normal" font-weight="normal" text-decoration="none" x="400" y="360">UNREGISTERED</text><text fill="#eeeeee" stroke="none" font-family="Arial" font-size="24px" font-style="normal" font-weight="normal" text-decoration="none" x="400" y="390">UNREGISTERED</text><text fill="#eeeeee" stroke="none" font-family="Arial" font-size="24px" font-style="normal" font-weight="normal" text-decoration="none" x="400" y="420">UNREGISTERED</text><text fill="#eeeeee" stroke="none" font-family="Arial" font-size="24px" font-style="normal" font-weight="normal" text-decoration="none" x="400" y="450">UNREGISTERED</text><text fill="#eeeeee" stroke="none" font-family="Arial" font-size="24px" font-style="normal" font-weight="normal" text-decoration="none" x="400" y="480">UNREGISTERED</text><text fill="#eeeeee" stroke="none" font-family="Arial" font-size="24px" font-style="normal" font-weight="normal" text-decoration="none" x="400" y="510">UNREGISTERED</text><text fill="#eeeeee" stroke="none" font-family="Arial" font-size="24px" font-style="normal" font-weight="normal" text-decoration="none" x="400" y="540">UNREGISTERED</text><text fill="#eeeeee" stroke="none" font-family="Arial" font-size="24px" font-style="normal" font-weight="normal" text-decoration="none" x="400" y="570">UNREGISTERED</text><text fill="#eeeeee" stroke="none" font-family="Arial" font-size="24px" font-style="normal" font-weight="normal" text-decoration="none" x="600" y="0">UNREGISTERED</text><text fill="#eeeeee" stroke="none" font-family="Arial" font-size="24px" font-style="normal" font-weight="normal" text-decoration="none" x="600" y="30">UNREGISTERED</text><text fill="#eeeeee" stroke="none" font-family="Arial" font-size="24px" font-style="normal" font-weight="normal" text-decoration="none" x="600" y="60">UNREGISTERED</text><text fill="#eeeeee" stroke="none" font-family="Arial" font-size="24px" font-style="normal" font-weight="normal" text-decoration="none" x="600" y="90">UNREGISTERED</text><text fill="#eeeeee" stroke="none" font-family="Arial" font-size="24px" font-style="normal" font-weight="normal" text-decoration="none" x="600" y="120">UNREGISTERED</text><text fill="#eeeeee" stroke="none" font-family="Arial" font-size="24px" font-style="normal" font-weight="normal" text-decoration="none" x="600" y="150">UNREGISTERED</text><text fill="#eeeeee" stroke="none" font-family="Arial" font-size="24px" font-style="normal" font-weight="normal" text-decoration="none" x="600" y="180">UNREGISTERED</text><text fill="#eeeeee" stroke="none" font-family="Arial" font-size="24px" font-style="normal" font-weight="normal" text-decoration="none" x="600" y="210">UNREGISTERED</text><text fill="#eeeeee" stroke="none" font-family="Arial" font-size="24px" font-style="normal" font-weight="normal" text-decoration="none" x="600" y="240">UNREGISTERED</text><text fill="#eeeeee" stroke="none" font-family="Arial" font-size="24px" font-style="normal" font-weight="normal" text-decoration="none" x="600" y="270">UNREGISTERED</text><text fill="#eeeeee" stroke="none" font-family="Arial" font-size="24px" font-style="normal" font-weight="normal" text-decoration="none" x="600" y="300">UNREGISTERED</text><text fill="#eeeeee" stroke="none" font-family="Arial" font-size="24px" font-style="normal" font-weight="normal" text-decoration="none" x="600" y="330">UNREGISTERED</text><text fill="#eeeeee" stroke="none" font-family="Arial" font-size="24px" font-style="normal" font-weight="normal" text-decoration="none" x="600" y="360">UNREGISTERED</text><text fill="#eeeeee" stroke="none" font-family="Arial" font-size="24px" font-style="normal" font-weight="normal" text-decoration="none" x="600" y="390">UNREGISTERED</text><text fill="#eeeeee" stroke="none" font-family="Arial" font-size="24px" font-style="normal" font-weight="normal" text-decoration="none" x="600" y="420">UNREGISTERED</text><text fill="#eeeeee" stroke="none" font-family="Arial" font-size="24px" font-style="normal" font-weight="normal" text-decoration="none" x="600" y="450">UNREGISTERED</text><text fill="#eeeeee" stroke="none" font-family="Arial" font-size="24px" font-style="normal" font-weight="normal" text-decoration="none" x="600" y="480">UNREGISTERED</text><text fill="#eeeeee" stroke="none" font-family="Arial" font-size="24px" font-style="normal" font-weight="normal" text-decoration="none" x="600" y="510">UNREGISTERED</text><text fill="#eeeeee" stroke="none" font-family="Arial" font-size="24px" font-style="normal" font-weight="normal" text-decoration="none" x="600" y="540">UNREGISTERED</text><text fill="#eeeeee" stroke="none" font-family="Arial" font-size="24px" font-style="normal" font-weight="normal" text-decoration="none" x="600" y="570">UNREGISTERED</text><g transform="translate(-418,-266) scale(1,1)"><rect fill="#C0C0C0" stroke="none" x="710" y="447" width="156.037109375" height="222" opacity="0.2"/></g><g transform="translate(-418,-266) scale(1,1)"><rect fill="#ffffff" stroke="none" x="703" y="440" width="156.037109375" height="222"/></g><g transform="translate(-418,-266) scale(1,1)"><path fill="none" stroke="#000000" d="M 703 440 L 859.037109375 440 L 859.037109375 662 L 703 662 L 703 440 Z Z" stroke-miterlimit="10"/></g><g transform="translate(-418,-266) scale(1,1)"><path fill="none" stroke="#000000" d="M 703 465 L 859.037109375 465" stroke-miterlimit="10"/></g><g transform="translate(-418,-266) scale(1,1)"><path fill="none" stroke="#000000" d="M 703 653 L 859.037109375 653" stroke-miterlimit="10"/></g><g transform="translate(-418,-266) scale(1,1)"><g><path fill="none" stroke="none"/><text fill="#000000" stroke="none" font-family="Arial" font-size="13px" font-style="normal" font-weight="bold" text-decoration="none" x="739.8349609375" y="459.5">PersonaFisica</text></g></g><g transform="translate(-418,-266) scale(1,1)"><g><path fill="none" stroke="none"/><text fill="#000000" stroke="none" font-family="Arial" font-size="13px" font-style="normal" font-weight="normal" text-decoration="none" x="708" y="482.5">+curp: String</text></g></g><g transform="translate(-418,-266) scale(1,1)"><g><path fill="none" stroke="none"/><text fill="#000000" stroke="none" font-family="Arial" font-size="13px" font-style="normal" font-weight="normal" text-decoration="none" x="708" y="497.5">+correo: String</text></g></g><g transform="translate(-418,-266) scale(1,1)"><g><path fill="none" stroke="none"/><text fill="#000000" stroke="none" font-family="Arial" font-size="13px" font-style="normal" font-weight="normal" text-decoration="none" x="708" y="512.5">+cvu: String</text></g></g><g transform="translate(-418,-266) scale(1,1)"><g><path fill="none" stroke="none"/><text fill="#000000" stroke="none" font-family="Arial" font-size="13px" font-style="normal" font-weight="normal" text-decoration="none" x="708" y="527.5">+prefijoHonorifico: String</text></g></g><g transform="translate(-418,-266) scale(1,1)"><g><path fill="none" stroke="none"/><text fill="#000000" stroke="none" font-family="Arial" font-size="13px" font-style="normal" font-weight="normal" text-decoration="none" x="708" y="542.5">+direcciones: Direccion[*]</text></g></g><g transform="translate(-418,-266) scale(1,1)"><g><path fill="none" stroke="none"/><text fill="#000000" stroke="none" font-family="Arial" font-size="13px" font-style="normal" font-weight="normal" text-decoration="none" x="708" y="557.5">+nombres: String</text></g></g><g transform="translate(-418,-266) scale(1,1)"><g><path fill="none" stroke="none"/><text fill="#000000" stroke="none" font-family="Arial" font-size="13px" font-style="normal" font-weight="normal" text-decoration="none" x="708" y="572.5">+primerApellido: String</text></g></g><g transform="translate(-418,-266) scale(1,1)"><g><path fill="none" stroke="none"/><text fill="#000000" stroke="none" font-family="Arial" font-size="13px" font-style="normal" font-weight="normal" text-decoration="none" x="708" y="587.5">+segundoApellido: String</text></g></g><g transform="translate(-418,-266) scale(1,1)"><g><path fill="none" stroke="none"/><text fill="#000000" stroke="none" font-family="Arial" font-size="13px" font-style="normal" font-weight="normal" text-decoration="none" x="708" y="602.5">+fechaNacimiento: String</text></g></g><g transform="translate(-418,-266) scale(1,1)"><g><path fill="none" stroke="none"/><text fill="#000000" stroke="none" font-family="Arial" font-size="13px" font-style="normal" font-weight="normal" text-decoration="none" x="708" y="617.5">+paisNacimiento: String</text></g></g><g transform="translate(-418,-266) scale(1,1)"><g><path fill="none" stroke="none"/><text fill="#000000" stroke="none" font-family="Arial" font-size="13px" font-style="normal" font-weight="normal" text-decoration="none" x="708" y="632.5">+genero: Genero</text></g></g><g transform="translate(-418,-266) scale(1,1)"><g><path fill="none" stroke="none"/><text fill="#000000" stroke="none" font-family="Arial" font-size="13px" font-style="normal" font-weight="normal" text-decoration="none" x="708" y="647.5">+nacionalidad: String</text></g></g><g transform="translate(-418,-266) scale(1,1)"><rect fill="#C0C0C0" stroke="none" x="759" y="283" width="101.853515625" height="72" opacity="0.2"/></g><g transform="translate(-418,-266) scale(1,1)"><rect fill="#ffffff" stroke="none" x="752" y="276" width="101.853515625" height="72"/></g><g transform="translate(-418,-266) scale(1,1)"><path fill="none" stroke="#000000" d="M 752 276 L 853.853515625 276 L 853.853515625 348 L 752 348 L 752 276 Z Z" stroke-miterlimit="10"/></g><g transform="translate(-418,-266) scale(1,1)"><path fill="none" stroke="#000000" d="M 752 301 L 853.853515625 301" stroke-miterlimit="10"/></g><g transform="translate(-418,-266) scale(1,1)"><path fill="none" stroke="#000000" d="M 752 339 L 853.853515625 339" stroke-miterlimit="10"/></g><g transform="translate(-418,-266) scale(1,1)"><g><path fill="none" stroke="none"/><text fill="#000000" stroke="none" font-family="Arial" font-size="13px" font-style="italic" font-weight="bold" text-decoration="none" x="781.26220703125" y="295.5">Persona</text></g></g><g transform="translate(-418,-266) scale(1,1)"><g><path fill="none" stroke="none"/><text fill="#000000" stroke="none" font-family="Arial" font-size="13px" font-style="normal" font-weight="normal" text-decoration="none" x="757" y="318.5">+rfc: String</text></g></g><g transform="translate(-418,-266) scale(1,1)"><g><path fill="none" stroke="none"/><text fill="#000000" stroke="none" font-family="Arial" font-size="13px" font-style="normal" font-weight="normal" text-decoration="none" x="757" y="333.5">+nombre: String</text></g></g><g transform="translate(-418,-266) scale(1,1)"><path fill="none" stroke="#000000" d="M 791 439 L 799 349" stroke-miterlimit="10"/></g><g transform="translate(-418,-266) scale(1,1)"><path fill="#FFFFFF" stroke="none" d="M 805.5863687333223 369.99094440249684 L 799 349 L 788.8144268642119 368.5001051252426"/></g><g transform="translate(-418,-266) scale(1,1)"><path fill="none" stroke="#000000" d="M 805.5863687333223 369.99094440249684 L 799 349 L 788.8144268642119 368.5001051252426 L 805.5863687333223 369.99094440249684" stroke-miterlimit="10"/></g><g transform="translate(-418,-266) scale(1,1)"><rect fill="#C0C0C0" stroke="none" x="991" y="319" width="153.1552734375" height="147" opacity="0.2"/></g><g transform="translate(-418,-266) scale(1,1)"><rect fill="#ffffff" stroke="none" x="984" y="312" width="153.1552734375" height="147"/></g><g transform="translate(-418,-266) scale(1,1)"><path fill="none" stroke="#000000" d="M 984 312 L 1137.1552734375 312 L 1137.1552734375 459 L 984 459 L 984 312 Z Z" stroke-miterlimit="10"/></g><g transform="translate(-418,-266) scale(1,1)"><path fill="none" stroke="#000000" d="M 984 337 L 1137.1552734375 337" stroke-miterlimit="10"/></g><g transform="translate(-418,-266) scale(1,1)"><path fill="none" stroke="#000000" d="M 984 450 L 1137.1552734375 450" stroke-miterlimit="10"/></g><g transform="translate(-418,-266) scale(1,1)"><g><path fill="none" stroke="none"/><text fill="#000000" stroke="none" font-family="Arial" font-size="13px" font-style="normal" font-weight="bold" text-decoration="none" x="1033.48583984375" y="331.5">Direccion</text></g></g><g transform="translate(-418,-266) scale(1,1)"><g><path fill="none" stroke="none"/><text fill="#000000" stroke="none" font-family="Arial" font-size="13px" font-style="normal" font-weight="normal" text-decoration="none" x="989" y="354.5">+pais: String</text></g></g><g transform="translate(-418,-266) scale(1,1)"><g><path fill="none" stroke="none"/><text fill="#000000" stroke="none" font-family="Arial" font-size="13px" font-style="normal" font-weight="normal" text-decoration="none" x="989" y="369.5">+estado: String</text></g></g><g transform="translate(-418,-266) scale(1,1)"><g><path fill="none" stroke="none"/><text fill="#000000" stroke="none" font-family="Arial" font-size="13px" font-style="normal" font-weight="normal" text-decoration="none" x="989" y="384.5">+municipio: String</text></g></g><g transform="translate(-418,-266) scale(1,1)"><g><path fill="none" stroke="none"/><text fill="#000000" stroke="none" font-family="Arial" font-size="13px" font-style="normal" font-weight="normal" text-decoration="none" x="989" y="399.5">+calle: String</text></g></g><g transform="translate(-418,-266) scale(1,1)"><g><path fill="none" stroke="none"/><text fill="#000000" stroke="none" font-family="Arial" font-size="13px" font-style="normal" font-weight="normal" text-decoration="none" x="989" y="414.5">+numeroExterior: Integer</text></g></g><g transform="translate(-418,-266) scale(1,1)"><g><path fill="none" stroke="none"/><text fill="#000000" stroke="none" font-family="Arial" font-size="13px" font-style="normal" font-weight="normal" text-decoration="none" x="989" y="429.5">+numeroInterior: Integer</text></g></g><g transform="translate(-418,-266) scale(1,1)"><g><path fill="none" stroke="none"/><text fill="#000000" stroke="none" font-family="Arial" font-size="13px" font-style="normal" font-weight="normal" text-decoration="none" x="989" y="444.5">+codigoPostal: String</text></g></g><g transform="translate(-418,-266) scale(1,1)"><rect fill="#C0C0C0" stroke="none" x="1017" y="564" width="101.853515625" height="72" opacity="0.2"/></g><g transform="translate(-418,-266) scale(1,1)"><rect fill="#ffffff" stroke="none" x="1010" y="557" width="101.853515625" height="72"/></g><g transform="translate(-418,-266) scale(1,1)"><path fill="none" stroke="#000000" d="M 1010 557 L 1111.853515625 557 L 1111.853515625 629 L 1010 629 L 1010 557 Z Z" stroke-miterlimit="10"/></g><g transform="translate(-418,-266) scale(1,1)"><path fill="none" stroke="#000000" d="M 1010 582 L 1111.853515625 582" stroke-miterlimit="10"/></g><g transform="translate(-418,-266) scale(1,1)"><path fill="none" stroke="#000000" d="M 1010 620 L 1111.853515625 620" stroke-miterlimit="10"/></g><g transform="translate(-418,-266) scale(1,1)"><g><path fill="none" stroke="none"/><text fill="#000000" stroke="none" font-family="Arial" font-size="13px" font-style="normal" font-weight="bold" text-decoration="none" x="1041.169677734375" y="576.5">Visado</text></g></g><g transform="translate(-418,-266) scale(1,1)"><g><path fill="none" stroke="none"/><text fill="#000000" stroke="none" font-family="Arial" font-size="13px" font-style="normal" font-weight="normal" text-decoration="none" x="1015" y="599.5">+numero: String</text></g></g><g transform="translate(-418,-266) scale(1,1)"><g><path fill="none" stroke="none"/><text fill="#000000" stroke="none" font-family="Arial" font-size="13px" font-style="normal" font-weight="normal" text-decoration="none" x="1015" y="614.5">+tipo: String</text></g></g><g transform="translate(-418,-266) scale(1,1)"><rect fill="#C0C0C0" stroke="none" x="464" y="368" width="107.97900390625" height="72" opacity="0.2"/></g><g transform="translate(-418,-266) scale(1,1)"><rect fill="#ffffff" stroke="none" x="457" y="361" width="107.97900390625" height="72"/></g><g transform="translate(-418,-266) scale(1,1)"><path fill="none" stroke="#000000" d="M 457 361 L 564.97900390625 361 L 564.97900390625 433 L 457 433 L 457 361 Z Z" stroke-miterlimit="10"/></g><g transform="translate(-418,-266) scale(1,1)"><path fill="none" stroke="#000000" d="M 457 386 L 564.97900390625 386" stroke-miterlimit="10"/></g><g transform="translate(-418,-266) scale(1,1)"><path fill="none" stroke="#000000" d="M 457 424 L 564.97900390625 424" stroke-miterlimit="10"/></g><g transform="translate(-418,-266) scale(1,1)"><g><path fill="none" stroke="none"/><text fill="#000000" stroke="none" font-family="Arial" font-size="13px" font-style="normal" font-weight="bold" text-decoration="none" x="464.37548828125" y="380.5">CuentaBancaria</text></g></g><g transform="translate(-418,-266) scale(1,1)"><g><path fill="none" stroke="none"/><text fill="#000000" stroke="none" font-family="Arial" font-size="13px" font-style="normal" font-weight="normal" text-decoration="none" x="462" y="403.5">+banco: String</text></g></g><g transform="translate(-418,-266) scale(1,1)"><g><path fill="none" stroke="none"/><text fill="#000000" stroke="none" font-family="Arial" font-size="13px" font-style="normal" font-weight="normal" text-decoration="none" x="462" y="418.5">+moneda: String</text></g></g><g transform="translate(-418,-266) scale(1,1)"><rect fill="#C0C0C0" stroke="none" x="435" y="539" width="123.5244140625" height="102" opacity="0.2"/></g><g transform="translate(-418,-266) scale(1,1)"><rect fill="#ffffff" stroke="none" x="428" y="532" width="123.5244140625" height="102"/></g><g transform="translate(-418,-266) scale(1,1)"><path fill="none" stroke="#000000" d="M 428 532 L 551.5244140625 532 L 551.5244140625 634 L 428 634 L 428 532 Z Z" stroke-miterlimit="10"/></g><g transform="translate(-418,-266) scale(1,1)"><path fill="none" stroke="#000000" d="M 428 557 L 551.5244140625 557" stroke-miterlimit="10"/></g><g transform="translate(-418,-266) scale(1,1)"><path fill="none" stroke="#000000" d="M 428 625 L 551.5244140625 625" stroke-miterlimit="10"/></g><g transform="translate(-418,-266) scale(1,1)"><g><path fill="none" stroke="none"/><text fill="#000000" stroke="none" font-family="Arial" font-size="13px" font-style="normal" font-weight="bold" text-decoration="none" x="446.760009765625" y="551.5">PuntoContacto</text></g></g><g transform="translate(-418,-266) scale(1,1)"><g><path fill="none" stroke="none"/><text fill="#000000" stroke="none" font-family="Arial" font-size="13px" font-style="normal" font-weight="normal" text-decoration="none" x="433" y="574.5">+tipo: TipoContacto</text></g></g><g transform="translate(-418,-266) scale(1,1)"><g><path fill="none" stroke="none"/><text fill="#000000" stroke="none" font-family="Arial" font-size="13px" font-style="normal" font-weight="normal" text-decoration="none" x="433" y="589.5">+correo: String</text></g></g><g transform="translate(-418,-266) scale(1,1)"><g><path fill="none" stroke="none"/><text fill="#000000" stroke="none" font-family="Arial" font-size="13px" font-style="normal" font-weight="normal" text-decoration="none" x="433" y="604.5">+numeroFax: String</text></g></g><g transform="translate(-418,-266) scale(1,1)"><g><path fill="none" stroke="none"/><text fill="#000000" stroke="none" font-family="Arial" font-size="13px" font-style="normal" font-weight="normal" text-decoration="none" x="433" y="619.5">+telefono: String</text></g></g><g transform="translate(-418,-266) scale(1,1)"><rect fill="#C0C0C0" stroke="none" x="452" y="758" width="130.0244140625" height="100" opacity="0.2"/></g><g transform="translate(-418,-266) scale(1,1)"><rect fill="#ffffff" stroke="none" x="445" y="751" width="130.0244140625" height="100"/></g><g transform="translate(-418,-266) scale(1,1)"><path fill="none" stroke="#000000" d="M 445 751 L 575.0244140625 751 L 575.0244140625 851 L 445 851 L 445 751 Z Z" stroke-miterlimit="10"/></g><g transform="translate(-418,-266) scale(1,1)"><path fill="none" stroke="#000000" d="M 445 776 L 575.0244140625 776" stroke-miterlimit="10"/></g><g transform="translate(-418,-266) scale(1,1)"><path fill="none" stroke="#000000" d="M 445 829 L 575.0244140625 829" stroke-miterlimit="10"/></g><g transform="translate(-418,-266) scale(1,1)"><g><path fill="none" stroke="none"/><text fill="#000000" stroke="none" font-family="Arial" font-size="13px" font-style="normal" font-weight="bold" text-decoration="none" x="480.746337890625" y="770.5">Institucion</text></g></g><g transform="translate(-418,-266) scale(1,1)"><g><path fill="none" stroke="none"/><text fill="#000000" stroke="none" font-family="Arial" font-size="13px" font-style="normal" font-weight="normal" text-decoration="none" x="450" y="793.5">+direccion: Direccion</text></g></g><g transform="translate(-418,-266) scale(1,1)"><g><path fill="none" stroke="none"/><text fill="#000000" stroke="none" font-family="Arial" font-size="13px" font-style="normal" font-weight="normal" text-decoration="none" x="450" y="808.5">+clave: String</text></g></g><g transform="translate(-418,-266) scale(1,1)"><g><path fill="none" stroke="none"/><text fill="#000000" stroke="none" font-family="Arial" font-size="13px" font-style="normal" font-weight="normal" text-decoration="none" x="450" y="823.5">+nombre: String</text></g></g><g transform="translate(-418,-266) scale(1,1)"><g><path fill="none" stroke="none"/><text fill="#000000" stroke="none" font-family="Arial" font-size="13px" font-style="normal" font-weight="normal" text-decoration="none" x="450" y="846.5">+getClave(): String</text></g></g><g transform="translate(-418,-266) scale(1,1)"><rect fill="#C0C0C0" stroke="none" x="734" y="785" width="95.72802734375" height="75" opacity="0.2"/></g><g transform="translate(-418,-266) scale(1,1)"><rect fill="#ffffff" stroke="none" x="727" y="778" width="95.72802734375" height="75"/></g><g transform="translate(-418,-266) scale(1,1)"><path fill="none" stroke="#000000" d="M 727 778 L 822.72802734375 778 L 822.72802734375 853 L 727 853 L 727 778 Z Z" stroke-miterlimit="10"/></g><g transform="translate(-418,-266) scale(1,1)"><path fill="none" stroke="#000000" d="M 727 816 L 822.72802734375 816" stroke-miterlimit="10"/></g><g transform="translate(-418,-266) scale(1,1)"><g><path fill="none" stroke="none"/><text fill="#000000" stroke="none" font-family="Arial" font-size="13px" font-style="normal" font-weight="normal" text-decoration="none" x="731.5" y="795.5">«enumeration»</text></g></g><g transform="translate(-418,-266) scale(1,1)"><g><path fill="none" stroke="none"/><text fill="#000000" stroke="none" font-family="Arial" font-size="13px" font-style="normal" font-weight="bold" text-decoration="none" x="753.18359375" y="810.5">Genero</text></g></g><g transform="translate(-418,-266) scale(1,1)"><g><path fill="none" stroke="none"/><text fill="#000000" stroke="none" font-family="Arial" font-size="13px" font-style="normal" font-weight="normal" text-decoration="none" x="732" y="833.5">FEMENINO</text></g></g><g transform="translate(-418,-266) scale(1,1)"><g><path fill="none" stroke="none"/><text fill="#000000" stroke="none" font-family="Arial" font-size="13px" font-style="normal" font-weight="normal" text-decoration="none" x="732" y="848.5">MASCULINO</text></g></g><g transform="translate(-418,-266) scale(1,1)"><rect fill="#C0C0C0" stroke="none" x="944" y="791" width="95.72802734375" height="47" opacity="0.2"/></g><g transform="translate(-418,-266) scale(1,1)"><rect fill="#ffffff" stroke="none" x="937" y="784" width="95.72802734375" height="47"/></g><g transform="translate(-418,-266) scale(1,1)"><path fill="none" stroke="#000000" d="M 937 784 L 1032.72802734375 784 L 1032.72802734375 831 L 937 831 L 937 784 Z Z" stroke-miterlimit="10"/></g><g transform="translate(-418,-266) scale(1,1)"><path fill="none" stroke="#000000" d="M 937 822 L 1032.72802734375 822" stroke-miterlimit="10"/></g><g transform="translate(-418,-266) scale(1,1)"><g><path fill="none" stroke="none"/><text fill="#000000" stroke="none" font-family="Arial" font-size="13px" font-style="normal" font-weight="normal" text-decoration="none" x="941.5" y="801.5">«enumeration»</text></g></g><g transform="translate(-418,-266) scale(1,1)"><g><path fill="none" stroke="none"/><text fill="#000000" stroke="none" font-family="Arial" font-size="13px" font-style="normal" font-weight="bold" text-decoration="none" x="946.44482421875" y="816.5">TipoContacto</text></g></g></g></svg>